<svg xmlns="http://www.w3.org/2000/svg" width="5250" height="1350"><line stroke="black" stroke-width="3" x1="0" y1="450" x2="5250" y2="450"/><line stroke="black" stroke-width="3" x1="0" y1="900" x2="5250" y2="900"/><rect stroke="black" stroke-width="2" x="150" y="150" width="300" height="150" fill="#ffffff"/> <text transform="translate(187.5 175.0)" x="0" y="0"><tspan font-size="larger" font-weight="bold" x="0" dy="1rem">CustomerForm</tspan><tspan x="0" dy="1rem">============</tspan><tspan x="0" dy="1rem">+ Name: Bob</tspan><tspan x="0" dy="1rem">+ Age: 21</tspan><tspan x="0" dy="1rem">+ Email: bob@example.com</tspan><tspan x="0" dy="1rem"/></text><rect stroke="black" stroke-width="2" x="600" y="600" width="300" height="150" fill="#60b3f7"/> <text transform="translate(637.5 625.0)" x="0" y="0"><tspan font-size="larger" font-weight="bold" x="0" dy="1rem">AddCustomer</tspan><tspan x="0" dy="1rem">===========</tspan><tspan x="0" dy="1rem"/></text><rect stroke="black" stroke-width="2" x="1050" y="1050" width="300" height="150" fill="#f7a660"/> <text transform="translate(1087.5 1075.0)" x="0" y="0"><tspan font-size="larger" font-weight="bold" x="0" dy="1rem">CustomerAdded</tspan><tspan x="0" dy="1rem">=============</tspan><tspan x="0" dy="1rem"/></text><rect stroke="black" stroke-width="2" x="1500" y="600" width="300" height="150" fill="#60f765"/> <text transform="translate(1537.5 625.0)" x="0" y="0"><tspan font-size="larger" font-weight="bold" x="0" dy="1rem">AccountsToAdd</tspan><tspan x="0" dy="1rem">=============</tspan><tspan x="0" dy="1rem">+ CustomerId: 123</tspan><tspan x="0" dy="1rem">+ State: TODO</tspan><tspan x="0" dy="1rem"/></text><rect stroke="black" stroke-width="2" x="1950" y="150" width="300" height="150" fill="#ffffff"/> <text transform="translate(1987.5 175.0)" x="0" y="0"><tspan font-size="larger" font-weight="bold" x="0" dy="1rem">ProcessAccountsToAdd</tspan><tspan x="0" dy="1rem">====================</tspan><tspan x="0" dy="1rem"/></text><rect stroke="black" stroke-width="2" x="2400" y="600" width="300" height="150" fill="#60b3f7"/> <text transform="translate(2437.5 625.0)" x="0" y="0"><tspan font-size="larger" font-weight="bold" x="0" dy="1rem">AddAccount</tspan><tspan x="0" dy="1rem">==========</tspan><tspan x="0" dy="1rem">+ CustomerId: 123</tspan><tspan x="0" dy="1rem">+ Name: Bob</tspan><tspan x="0" dy="1rem">+ OpenDate: 2022-01-01</tspan><tspan x="0" dy="1rem"/></text><rect stroke="black" stroke-width="2" x="2850" y="1050" width="300" height="150" fill="#f7a660"/> <text transform="translate(2887.5 1075.0)" x="0" y="0"><tspan font-size="larger" font-weight="bold" x="0" dy="1rem">AccountAdded</tspan><tspan x="0" dy="1rem">============</tspan><tspan x="0" dy="1rem">+ CustomerId: 123</tspan><tspan x="0" dy="1rem">+ Name: Bob</tspan><tspan x="0" dy="1rem"/></text><rect stroke="black" stroke-width="2" x="3300" y="600" width="300" height="150" fill="#60f765"/> <text transform="translate(3337.5 625.0)" x="0" y="0"><tspan font-size="larger" font-weight="bold" x="0" dy="1rem">UsersToAdd</tspan><tspan x="0" dy="1rem">==========</tspan><tspan x="0" dy="1rem">+ CustomerId: 123</tspan><tspan x="0" dy="1rem">+ State: TODO</tspan><tspan x="0" dy="1rem"/></text><rect stroke="black" stroke-width="2" x="3750" y="150" width="300" height="150" fill="#ffffff"/> <text transform="translate(3787.5 175.0)" x="0" y="0"><tspan font-size="larger" font-weight="bold" x="0" dy="1rem">ProcessUsersToAdd</tspan><tspan x="0" dy="1rem">=================</tspan><tspan x="0" dy="1rem"/></text><rect stroke="black" stroke-width="2" x="4200" y="600" width="300" height="150" fill="#60b3f7"/> <text transform="translate(4237.5 625.0)" x="0" y="0"><tspan font-size="larger" font-weight="bold" x="0" dy="1rem">AddUser</tspan><tspan x="0" dy="1rem">=======</tspan><tspan x="0" dy="1rem">+ Name: Bob</tspan><tspan x="0" dy="1rem">+ Login: bob</tspan><tspan x="0" dy="1rem"/></text><rect stroke="black" stroke-width="2" x="4650" y="1050" width="300" height="150" fill="#f7a660"/> <text transform="translate(4687.5 1075.0)" x="0" y="0"><tspan font-size="larger" font-weight="bold" x="0" dy="1rem">UserAdded</tspan><tspan x="0" dy="1rem">=========</tspan><tspan x="0" dy="1rem"/></text><path stroke="black" stroke-width="2" d="M 450 225 Q 750.0 225.0 750 600" fill="none"/><path stroke="black" stroke-width="2" d="M 750 750 Q 750.0 1125.0 1050 1125" fill="none"/><path stroke="black" stroke-width="2" d="M 1350 1125 Q 1650.0 1125.0 1650 750" fill="none"/><path stroke="black" stroke-width="2" d="M 1650 600 Q 1650.0 225.0 1950 225" fill="none"/><path stroke="black" stroke-width="2" d="M 2250 225 Q 2550.0 225.0 2550 600" fill="none"/><path stroke="black" stroke-width="2" d="M 2550 750 Q 2550.0 1125.0 2850 1125" fill="none"/><path stroke="black" stroke-width="2" d="M 1350 1125 Q 3450.0 1125.0 3450 750" fill="none"/><path stroke="black" stroke-width="2" d="M 3450 600 Q 3450.0 225.0 3750 225" fill="none"/><path stroke="black" stroke-width="2" d="M 4050 225 Q 4350.0 225.0 4350 600" fill="none"/><path stroke="black" stroke-width="2" d="M 4350 750 Q 4350.0 1125.0 4650 1125" fill="none"/></svg>